<svg xmlns="http://www.w3.org/2000/svg" version="1.1" xmlns:xlink="http://www.w3.org/1999/xlink" width="512" height="512" x="0" y="0" viewBox="0 0 512 512" style="enable-background:new 0 0 512 512" xml:space="preserve" class=""><g><path fill="#554e56" d="M23.199 198.569h10.778l14.534-50.924-14.534-50.459H23.199c-10.514 0-19.037 8.523-19.037 19.037v63.309c0 10.514 8.523 19.037 19.037 19.037z" opacity="1" data-original="#554e56"></path><path fill="#685e68" d="M330.816.004H116.134c-45.374 0-82.157 36.783-82.157 82.157v327.658c0 45.374 36.783 82.157 82.157 82.157h214.683c45.374 0 82.157-36.783 82.157-82.157V82.16C412.973 36.786 376.19.004 330.816.004z" opacity="1" data-original="#685e68"></path><path fill="#554e56" d="M138.123 491.971h-21.985c-45.376 0-82.16-36.784-82.16-82.16V82.16C33.977 36.784 70.761 0 116.137 0h21.985c-45.376 0-82.16 36.784-82.16 82.16v327.651c0 45.376 36.784 82.16 82.161 82.16z" opacity="1" data-original="#554e56"></path><path fill="#f9f7f8" d="M373.378 82.164v327.651c0 23.47-19.095 42.565-42.565 42.565H116.137c-23.47 0-42.565-19.095-42.565-42.565V82.164c0-23.47 19.095-42.565 42.565-42.565h214.676c23.47 0 42.565 19.095 42.565 42.565z" opacity="1" data-original="#f9f7f8" class=""></path><path fill="#dedbee" d="M151.381 452.388h-35.242c-23.467 0-42.567-19.1-42.567-42.567V82.164c0-23.467 19.099-42.557 42.567-42.557h35.242c-23.467 0-42.567 19.089-42.567 42.557v327.658c0 23.467 19.1 42.566 42.567 42.566z" opacity="1" data-original="#dedbee"></path><path fill="#fe646f" d="M139.465 82.16h168.021c17.422 0 31.545 14.123 31.545 31.545v81.448c0 17.422-14.123 31.545-31.545 31.545H139.465c-17.422 0-31.545-14.123-31.545-31.545v-81.448c-.001-17.421 14.123-31.545 31.545-31.545z" opacity="1" data-original="#fe646f"></path><path fill="#fd4755" d="M161.571 226.706h-22.108c-17.42 0-31.544-14.124-31.544-31.554v-81.446c0-17.42 14.124-31.544 31.544-31.544h22.108c-17.43 0-31.544 14.124-31.544 31.544v81.446c0 17.43 14.113 31.554 31.544 31.554z" opacity="1" data-original="#fd4755"></path><g fill="#fee45a"><path d="M229.071 117.172a9.257 9.257 0 0 0-8.673-5.967h-.009a9.26 9.26 0 0 0-8.658 5.948l-25.885 67.965a7.726 7.726 0 0 0 14.44 5.5l4.551-11.95h30.924l4.502 11.928a7.73 7.73 0 0 0 7.23 5.001 7.727 7.727 0 0 0 7.227-10.457zm-18.349 46.042 9.648-25.331 9.56 25.331zM311.059 112.631a7.728 7.728 0 0 0-10.691 2.26l-15.373 23.616-15.54-23.8a7.728 7.728 0 0 0-12.939 8.449l20.756 31.788-.039 46.332a7.727 7.727 0 0 0 7.72 7.733h.007a7.726 7.726 0 0 0 7.726-7.72l.039-46.332 20.594-31.635a7.727 7.727 0 0 0-2.26-10.691zM159.301 111.205h-19.195a7.723 7.723 0 0 0-7.726 7.751v68.911a7.726 7.726 0 1 0 15.452 0v-22.259c4.082-.021 8.818-.043 11.469-.043 15.197 0 27.561-12.193 27.561-27.18s-12.364-27.18-27.561-27.18zm0 38.908c-2.632 0-7.31.021-11.378.042-.022-4.197-.055-19.108-.068-23.497h11.446c6.563 0 12.108 5.371 12.108 11.727s-5.545 11.728-12.108 11.728z" fill="#fee45a" opacity="1" data-original="#fee45a"></path></g><path fill="#ffdfcf" d="M467.402 312.249a29.425 29.425 0 0 0-21.676 8.643 29.415 29.415 0 0 0-8.653 20.886v-10.842c0-16.312-13.226-29.539-29.539-29.539-16.312 0-29.539 13.226-29.539 29.539v-14.01c0-16.312-13.218-29.539-29.531-29.539-16.321 0-29.539 13.226-29.539 29.539V201.279c0-8.16-3.305-15.545-8.653-20.886-5.349-5.349-12.733-8.653-20.886-8.653-16.313 0-29.539 13.226-29.539 29.539v161.593h.001l.001 32.177-31.405-31.405c-13.512-13.512-35.412-13.512-48.923 0-6.756 6.756-10.139 15.617-10.139 24.467s3.383 17.711 10.139 24.467l73.809 73.798c17.765 17.765 41.254 26.293 64.519 25.584h.032l-.029-.004h90.822c48.312 0 87.476-39.165 87.476-87.476v-82.222c0-16.088-12.667-29.59-28.748-30.009z" opacity="1" data-original="#ffdfcf"></path><g fill="#ffcebf"><path d="M299.431 173.487a29.606 29.606 0 0 0-10.845 6.9c-5.351 5.351-8.658 12.732-8.658 20.895V400.35a49.695 49.695 0 0 0-11.587 3.19l-8.488-8.488V201.283a29.433 29.433 0 0 1 8.645-20.895 29.461 29.461 0 0 1 20.883-8.645c3.541 0 6.913.611 10.05 1.744zM358.515 289.131a29.606 29.606 0 0 0-10.845 6.9c-5.351 5.351-8.658 12.732-8.658 20.895l-.001 13.128c-.001 8.658-7.019 15.676-15.677 15.676h-4.4l.002-28.803a29.433 29.433 0 0 1 8.645-20.895 29.461 29.461 0 0 1 20.883-8.645c3.542 0 6.913.611 10.051 1.744zM417.573 303.14a29.606 29.606 0 0 0-10.845 6.9c-5.351 5.351-8.658 12.732-8.658 20.895 0 8.171-6.624 14.795-14.795 14.795h-5.28v-14.795a29.433 29.433 0 0 1 8.645-20.895 29.461 29.461 0 0 1 20.883-8.645c3.54 0 6.912.612 10.05 1.745zM476.65 313.982a29.606 29.606 0 0 0-10.845 6.9 29.494 29.494 0 0 0-7.941 14.401c-1.285 6.062-6.564 10.447-12.76 10.447h-8.031v-3.953a29.433 29.433 0 0 1 8.645-20.895 29.461 29.461 0 0 1 20.883-8.645c3.54 0 6.912.612 10.049 1.745zM317.163 511.97c-23.044.521-46.244-8.007-63.832-25.595l-73.805-73.805c-6.757-6.757-10.142-15.609-10.142-24.462s3.385-17.719 10.142-24.476c10.35-10.35 25.634-12.759 38.289-7.239a34.152 34.152 0 0 0-10.649 7.252c-6.757 6.757-10.142 15.61-10.142 24.463s3.385 17.706 10.142 24.462l73.805 73.805c10.479 10.467 22.952 19.828 36.192 25.595z" fill="#ffcebf" opacity="1" data-original="#ffcebf"></path></g><path fill="#62dbfb" d="M229.159 272.239H119.877a7.726 7.726 0 1 1 0-15.452h109.282a7.726 7.726 0 1 1 0 15.452zM185.692 305.428h-65.815a7.726 7.726 0 1 1 0-15.452h65.815a7.726 7.726 0 1 1 0 15.452z" opacity="1" data-original="#62dbfb"></path><g fill="#fee45a"><path d="m438.832 199.475 1.125-1.956c3.969-6.898 12.602-9.544 19.755-6.056l22.002 10.729c7.881 3.843 10.859 13.557 6.486 21.156l-2.797 4.86c-4.373 7.6-14.268 9.906-21.551 5.022l-20.331-13.633c-6.609-4.432-8.659-13.225-4.689-20.122zM453.14 144.101l-.003-2.256c-.011-7.958 6.141-14.566 14.08-15.122l24.419-1.71c8.747-.612 16.182 6.311 16.195 15.079l.008 5.607c.012 8.768-7.404 15.713-16.152 15.125l-24.424-1.641c-7.941-.534-14.112-7.124-14.123-15.082zM439.905 88.429l-1.131-1.953c-3.989-6.886-1.964-15.685 4.633-20.136L463.7 52.65c7.269-4.904 17.17-2.626 21.565 4.962l2.81 4.852c4.395 7.587 1.444 17.309-6.426 21.175L459.677 94.43c-7.143 3.507-15.783.886-19.772-6.001z" fill="#fee45a" opacity="1" data-original="#fee45a"></path></g></g></svg>